# xmcd
#
# Track frame offsets:
#	150
#	22332
#	43980
#	58751
#	91247
#	109548
#	129101
#
# Disc length: 2153 seconds
#
# Revision: 0
# Processed by: cddbd v1.5PL3 Copyright (c) Steve Scherf et al.
# Submitted via: dBpowerAMP V4.0
#
DISCID=59086707
DTITLE=The sensational Alex Harvey - Next
DYEAR=1974
DGENRE=blues
TTITLE0=Swampsnake
TTITLE1=Gang Bang
TTITLE2=Faith Healer
TTITLE3=Giddy Up a Ding Dong
TTITLE4=Next
TTITLE5=Vambo Marble Eye
TTITLE6=Last of The Teenage Idols
EXTD=Foz007
EXTT0=
EXTT1=
EXTT2=
EXTT3=
EXTT4=
EXTT5=
EXTT6=
PLAYORDER=
